<?xml version="1.0" encoding="utf-8"?>
<!-- Generator: Adobe Illustrator 23.0.4, SVG Export Plug-In . SVG Version: 6.00 Build 0)  -->
<svg version="1.1" id="Layer_1" xmlns="http://www.w3.org/2000/svg" xmlns:xlink="http://www.w3.org/1999/xlink" x="0px" y="0px"
	 viewBox="0 0 3341 1341" style="enable-background:new 0 0 3341 1341;" xml:space="preserve">
<style type="text/css">
	.st0{fill:#D3868D;}
	.st1{fill:#F0A5AC;}
	.st2{fill:#A05A60;}
	.st3{fill:#FFFFFF;}
	.st4{fill:#00436D;}
</style>
<g id="Page-1">
	<g id="Artboard" transform="translate(-27770.000000, -16123.000000)">
		<g id="Logo" transform="translate(27684.048608, 16018.269821)">
			<g id="noun_Brain_38917" transform="translate(285.270463, 351.258874)">
				<polygon id="Path-3" class="st0" points="641.1,162.5 774.5,40.4 922.4,162.5 1058.1,227.2 1142.1,457.4 1119.8,596.9
					951.7,664.8 844.1,536.5 647.5,235.3 				"/>
				<path id="Path-2" class="st1" d="M422.6,67.3c90,0,174.3,32.4,199.7,115.4c58.2-4.8,137.9,80.5,137.9,161.3
					c76.6,26.1,76.6,102.4,73.3,169.1c-2.2,44.5,28.1,90.8,91.1,139.2l-91.1,98.7L676.4,790l-67.5,58.4L557,877.8l-95.6,160.6
					l-79.9-160.6l-123.1-29.4L144.8,790l-22.5-71.5l-66.6-87l29.1-170.2v-164l173.7-172.3C307.8,86.5,362.5,67.3,422.6,67.3z"/>
				<path id="Shape" class="st2" d="M1029.3,597.5c-16.4,6-36.6,10.2-56.5,10.2c-20.5,0-40.9-4.5-56.4-16.3
					C857,546.4,901.8,478,929,428.9c10.3-18.7,31.9-52.5,14.9-72.9c-6.1-7.3-14-10.3-22.4-10.3c-19.5,0-41.6,16.4-48.9,32
					c-16.9,36.5-36.4,71.4-44.7,111.1c-16.5-16.7-63.3-34.2-101.1-34.2c-29.3,0-53.3,10.6-53.3,40.5c0,19.6,10.4,25.8,23.8,25.8
					c15.5,0,35.2-8.1,47.5-12.8h2.4c68.8,0,153.8,129.4,107.6,188.8c-23.8,30.7-86.7,45.9-139.2,45.9c-22.2,0-42.6-2.7-57.4-8.2
					c-24.5-8.9-33.2-36.3-55.7-49.9c-31.9-19.2-64.1-27.6-95.8-27.6c-42.2,0-83.7,14.7-123.4,38.4c6.8,16-4.4,46,14.8,53.4
					c29.8-20,61.7-29.1,91.4-29.1c53.2,0,99.4,29,114.2,76.3c3.9,12.4-31.2,15.5-41.1,15.5c-0.8,0-1.4,0-1.8,0
					c-6.1-0.5-11.5-1.3-16.5-1.3c-7.2,0-13.8,1.5-20.7,7.7c-19.7,17.5-26,48.6-35.6,71.8c-6.9,16.7-12.9,33.7-18.4,50.9
					c-5,15.5-19.1,42.8-17.3,58.7c-3.7-32.2-2.1-64.1,0.7-96.3c0.7-8,5.8-84.6,1.2-84.8c-1.9-0.1-3.7-0.1-5.5-0.1
					c-15.6,0-30.8,1.9-45.8,1.9c-16.7,0-33.2-2.4-49.1-12.4c-12.2-7.7-36.5-33-50.7-33c-0.3,0-0.6,0-0.9,0
					c-11.9,1-26.4,21.1-37.6,26.6c-7.5,3.7-15,5.7-22.5,5.7c-7.7,0-15.3-2.2-22.8-6.8c-72.1-44.8-37.4-139.9,27-171.6
					c70.7-34.8,171.6,5.3,222.8-74.2c12.7-19.6-7.5-66.7-35-66.7c-10.2,0-21.6,4.9-35,13.2c-16.9,10.3-34.5,19.8-52.5,28.4
					c-16.2,7.8-38.1,20.1-58,20.1c-3.6,0-7.2-0.4-10.7-1.4c-17.4-4.7-16.3-47.9-19-61.4c-3.5-17.5-14-69.8-39.8-69.8
					c-3,0-6.3,0.7-9.7,2.3c-23.2,10.5-15.9,49.3-11.4,67.8c5.8,23.9,22.7,47.6,18.3,73.2c-3.6,21-21.6,36.8-35.3,52.1
					c-12.2,13.5-37.7,49.1-56.9,49.1c-7.3,0-13.6-5.1-18-18.5c-7.4-22.5-11.6-53.3-6.1-76.8c8.7-37.8,29.3-71.8,46.3-106.3
					c4.1-8.2-8.7-38.1-10.9-47.5c-2.9-12.9-5.8-26-7.1-39.1c-2.9-28.4,0.9-57.6,19.8-80.4c23.4-28.5,63.9-47.4,99-58.3
					c24.9-7.7,57.8-13,91.5-13c54.1,0,110,13.6,137.5,52.2c23.8,33.5,13.8,79.5,35.7,114.2c8.3,13.1,27.9,24.2,45,24.2
					c12.8,0,24.1-6.3,27.8-22.8c8.8-38.8-35.7-82.9-51.2-116.6c-17.2-37.4,12.6-25,28.4-50.9c8.6-14.1,0.3-33.3-12.3-42.5
					c-5.7-4.2-11.2-5.8-16.6-5.8c-14.6,0-28.3,11.8-42.9,16.3c-9.6,3-19.8,4.3-30,4.3c-5.4,0-10.7-0.3-16.1-1
					c-21.6-2.7-49.9-8.3-67.3-22c-4.6-3.7-7.6-7.2-9.2-10.7c-15.2-33.1,91.6-60,115.1-63.9c5.1-0.8,9.9-1.2,14.5-1.2
					c42.3,0,70.8,32,99.5,60.1c15.2,14.9,36.2,40.8,55.5,48.8c10.9-15.9,18.2-34.3,29.1-50.4c22-32,55.4-57,95.2-57
					c4.5,0,9.2,0.3,13.8,1C871.4,109.2,865,202.3,911.2,250c8.1,8.4,14.8,11.6,21.4,11.6c8,0,16-4.7,26.6-10.5
					c6.8-3.7,13.8-5.3,20.6-5.3c31,0,60.3,33.6,74.7,56.7c21,33.5,28.6,75.4,25.9,114.4c-0.8,11.8-2.7,23.8-5.9,35.1
					c-8.8,30.7,28.8,42.3,30.6,73.6C1107.1,562,1058.6,586.8,1029.3,597.5 M1175,446.2c1.1-7.3,1.9-14.9,2.5-22.6
					c4.4-61.9-9.8-122.4-39.9-170.5c-19.3-30.7-73.1-102.2-157.8-102.2c-4.8,0-9.5,0.3-14.2,0.7c-0.3-0.8-0.7-1.6-1-2.4
					c-18.8-45.5-54-130.3-160.3-145.5c-9.3-1.3-18.7-2-28-2c-51.8,0-101.1,20.6-140.7,57.7C603.6,30.5,559.6,0.1,497,0.1
					c-10.1,0-20.4,0.9-30.7,2.6c-33.6,5.6-146.1,29-184,98.3c-5.3,9.8-9.1,20.1-11.3,30.5c-18.8,2.9-36.8,7-53.5,12.2
					c-44,13.6-104.8,40.2-145.2,89.2C49.5,260.5,24,308.8,31.5,382.1c1.9,19,5.8,36.3,8.9,50.1c0.9,3.7,2.2,8.5,4.1,14.1
					C29.6,474.8,13.8,507.1,5,545.1c-12.4,53.5,1.8,106.3,8.4,126.5c14.3,43.4,43,67.3,72.7,77.8c10.4,58.7,38.4,104.2,81.1,130.7
					c22.8,14.1,48.8,21.6,75,21.6c20.7,0,41.1-4.5,60.9-13.4c16,9.8,33.2,16.8,51.8,21.1c-2.3,31-3.4,64.5,0.7,100.3
					c5.7,48.4,47.8,84.2,96.6,84.2c3.7,0,7.3-0.2,11.1-0.6c48.5-5.4,84.6-44.5,86.3-90.6c1.3-3.8,3.5-9.1,4.9-12.7
					c3.2-7.8,6-15.1,8-21.1c5.6-17.3,10.5-31.2,15.8-43.8c2.6-6.3,5.1-13.1,7.6-20.1c30.6-3.2,70.2-14.3,95.2-47.3
					c5.1-6.7,9.2-13.7,12.4-21c7.3,0.4,14.7,0.6,22.3,0.6c73.5,0,169-21.9,216.8-83.5c12.1-15.5,20.8-33,26.2-51.7
					c4.6,0.3,9.4,0.4,14.1,0.4c38.1,0,70.3-8.8,90.6-16.2c90.9-33.1,142.8-95.1,138.8-165.9C1200.4,487.3,1186.6,462.5,1175,446.2"
					/>
			</g>

				<g id="Group-5" transform="translate(473.033941, 464.843989) rotate(-40.000000) translate(-473.033941, -464.843989) translate(105.033941, 167.843989)">

					<ellipse id="Oval-2" transform="matrix(-1 1.983781e-06 -1.983781e-06 -1 736.7266 903.2279)" cx="368.4" cy="451.6" rx="367.6" ry="142"/>
				<polygon id="Rectangle-5" points="100.1,83.1 656.5,83.1 628.7,433.2 127.9,433.2 				"/>

					<ellipse id="Oval-2-Copy-3" transform="matrix(-1 1.974358e-06 -1.974358e-06 -1 665.001 186.58)" class="st3" cx="332.5" cy="93.3" rx="287.9" ry="92.5"/>

					<ellipse id="Oval-2-Copy-2" transform="matrix(-1 1.965458e-06 -1.965458e-06 -1 756.5966 166.2234)" cx="378.3" cy="83.1" rx="278.2" ry="82.4"/>
			</g>
			<path id="DANDI" class="st4" d="M1859.9,947V557.5h125.5c34.4,0,65.4,7.8,92.8,23.4c27.5,15.6,48.9,37.6,64.3,66.1
				s23.2,60.3,23.4,95.6v17.9c0,35.7-7.5,67.6-22.6,95.9c-15.1,28.3-36.3,50.4-63.7,66.3c-27.4,16-57.9,24-91.6,24.2H1859.9z
				 M1953.8,630v244.8h32.6c26.9,0,47.6-9.6,62.1-28.8c14.4-19.2,21.7-47.7,21.7-85.5v-16.9c0-37.6-7.2-66-21.7-85.1
				c-14.4-19.1-35.5-28.6-63.1-28.6H1953.8z M2435.3,874.2h-128.7l-22.5,72.8h-100.3l142.8-389.5h88.3L2558.9,947H2458L2435.3,874.2
				z M2329.1,801.7h83.7l-42-135.1L2329.1,801.7z M2912.5,947h-93.4l-138-242.4V947h-93.9V557.5h93.9l137.8,242.4V557.5h93.6V947z
				 M2971.9,947V557.5h125.5c34.4,0,65.4,7.8,92.8,23.4s48.9,37.6,64.3,66.1c15.4,28.4,23.2,60.3,23.4,95.6v17.9
				c0,35.7-7.5,67.6-22.6,95.9c-15.1,28.3-36.3,50.4-63.7,66.3c-27.4,16-57.9,24-91.6,24.2H2971.9z M3065.8,630v244.8h32.6
				c26.9,0,47.6-9.6,62.1-28.8s21.7-47.7,21.7-85.5v-16.9c0-37.6-7.2-66-21.7-85.1S3125,630,3097.3,630H3065.8z M3426.1,947h-93.6
				V557.5h93.6V947z"/>
		</g>
	</g>
</g>
</svg>
